# xmcd
#
# Track frame offsets: 
#        150
#        16012
#        31912
#        53587
#        71137
#        91987
#        115312
#        137287
#        160012
#        182962
#        200962
#        224850
#        251550
#
# Disc length: 3741 seconds
#
# Revision: 7
# Processed by: cddbd v1.5.2PL0 Copyright (c) Steve Scherf et al.
# Submitted via: ExactAudioCopy v1.1
#
DISCID=b90e9b0d
DTITLE=Chara - Sugar Hunter~THE BEST LOVE SONGS OF CHARA~
DYEAR=2007
DGENRE=J-Pop
TTITLE0=しましまのバンビ
TTITLE1=やさしい気持ち
TTITLE2=レモンキャンディ
TTITLE3=ミルク
TTITLE4=愛の自爆装置
TTITLE5=恋をした
TTITLE6=大切をきずくもの
TTITLE7=Happy Toy
TTITLE8=大きな地震がきたって
TTITLE9=Duca
TTITLE10=スカート(album version)
TTITLE11=Tiny Tiny Tiny
TTITLE12=Junior Sweet
EXTD=YEAR: 2007
EXTT0=
EXTT1=
EXTT2=
EXTT3=
EXTT4=
EXTT5=
EXTT6=
EXTT7=
EXTT8=
EXTT9=
EXTT10=
EXTT11=
EXTT12=
PLAYORDER=
